name X:\Health\ResearchProjects\ASalo\Sprinting 2016\NHaralabidis\Running_implicit_muscleDriven\Running_implicit_muscleDriven\Study2\ExperimentalData\IK_Splined\twoSteps_IK_BSplines_60_meshInts_study2_p02_s_01_lowIK_modROI.mot
datacolumns 38
datarows 15
range 0.43700000 0.46348663
endheader
                time	         pelvis_tilt	         pelvis_list	     pelvis_rotation	           pelvis_tx	           pelvis_ty	           pelvis_tz	       hip_flexion_r	     hip_adduction_r	      hip_rotation_r	        knee_angle_r	       ankle_angle_r	    subtalar_angle_r	         mtp_angle_r	       hip_flexion_l	     hip_adduction_l	      hip_rotation_l	        knee_angle_l	       ankle_angle_l	    subtalar_angle_l	         mtp_angle_l	    lumbar_extension	      lumbar_bending	     lumbar_rotation	          arm_flex_r	           arm_add_r	           arm_rot_r	        elbow_flex_r	           pro_sup_r	        wrist_flex_r	         wrist_dev_r	          arm_flex_l	           arm_add_l	           arm_rot_l	        elbow_flex_l	           pro_sup_l	        wrist_flex_l	         wrist_dev_l	
          0.43700000	        -21.49753418	          1.40682910	        -11.32049143	         -0.86218312	          0.85363375	          0.34095176	         25.48775557	          1.60473018	         10.75076438	        -56.86698335	         18.86051546	        -15.96225961	         12.53534341	         53.40355067	         -3.62088882	        -14.73514701	       -110.51300418	         -5.96009074	        -14.42632784	         10.17076037	        -25.60148516	         -3.40622118	         -6.79665011	         32.75503735	          1.20908783	          9.95551410	         81.52775840	         72.06768220	         -5.49242872	         10.71326969	        -43.75652874	         -9.85416160	        -16.87200090	         37.19747596	         71.09349108	        -10.36419582	         19.40602193	
          0.43812670	        -21.44983333	          1.56895702	        -11.47795980	         -0.85723607	          0.85349881	          0.34126414	         25.02460202	          1.36650683	         10.85159087	        -56.57260553	         18.72854014	        -15.86081326	         12.82343940	         54.18098579	         -3.53266803	        -14.66053015	       -110.84009753	         -5.67865455	        -14.42879842	         10.19273117	        -25.53054668	         -3.72775878	         -6.81147686	         33.75898523	          1.54899699	         10.16924912	         81.89285748	         72.09197588	         -5.51354475	         10.72551054	        -44.69338826	         -9.73694102	        -16.99409157	         37.39276604	         71.58915121	        -10.25822236	         19.56707435	
          0.44168663	        -21.34653477	          2.14447036	        -11.86259365	         -0.84135762	          0.85290397	          0.34207458	         23.55508306	          0.43861436	         11.07003345	        -55.48872975	         18.29125549	        -15.41233206	         13.81615555	         56.68976738	         -3.15554831	        -14.38974839	       -111.67211712	         -4.92150468	        -14.63367868	         10.06577774	        -25.19317287	         -4.76777371	         -6.75595037	         36.71036218	          2.41195547	         10.73539021	         83.30991550	         72.10980119	         -5.59700588	         10.75221784	        -47.64106571	         -9.36891636	        -17.40403501	         38.33459458	         73.11726101	         -9.89783830	         20.01130557	
          0.44426667	        -21.28410231	          2.57815624	        -12.11175217	         -0.82978482	          0.85242870	          0.34261564	         22.48844609	         -0.27980944	         11.20209503	        -54.66287991	         17.96901395	        -15.05374855	         14.55724001	         58.52173429	         -2.85643799	        -14.18431769	       -112.22229573	         -4.40739392	        -14.83383748	          9.92228007	        -24.91897215	         -5.52783490	         -6.68886564	         38.79149294	          2.98205187	         11.11707254	         84.40600918	         72.10726780	         -5.66188395	         10.76843559	        -49.77412430	         -9.10280711	        -17.70748119	         39.10234038	         74.21479401	         -9.62995228	         20.31631421	
          0.44426667	        -21.28410231	          2.57815624	        -12.11175217	         -0.82978482	          0.85242870	          0.34261564	         22.48844609	         -0.27980944	         11.20209503	        -54.66287991	         17.96901395	        -15.05374855	         14.55724001	         58.52173429	         -2.85643799	        -14.18431769	       -112.22229573	         -4.40739392	        -14.83383748	          9.92228007	        -24.91897215	         -5.52783490	         -6.68886564	         38.79149294	          2.98205187	         11.11707254	         84.40600918	         72.10726780	         -5.66188395	         10.76843559	        -49.77412430	         -9.10280711	        -17.70748119	         39.10234038	         74.21479401	         -9.62995228	         20.31631421	
          0.44539337	        -21.25683802	          2.76754715	        -12.22055987	         -0.82473097	          0.85222115	          0.34285192	         22.02264499	         -0.59354561	         11.25976641	        -54.30223072	         17.82829084	        -14.89715489	         14.88087210	         59.32175549	         -2.72581630	        -14.09460596	       -112.46255910	         -4.18288140	        -14.92124696	          9.85961454	        -24.79922850	         -5.85975414	         -6.65956969	         39.70032416	          3.23101335	         11.28375348	         84.88467404	         72.10616147	         -5.69021625	         10.77551790	        -50.70563245	         -8.98659702	        -17.83999635	         39.43761549	         74.69408742	         -9.51296627	         20.44951170	
          0.44895330	        -21.19670154	          3.42976534	        -12.45499508	         -0.80839057	          0.85143085	          0.34339213	         20.50659627	         -1.74847050	         11.33637060	        -52.98416424	         17.31245635	        -14.26812868	         15.94144118	         61.83057886	         -2.24142327	        -13.82249336	       -112.98108787	         -3.55317716	        -15.31468039	          9.56237163	        -24.34368300	         -6.93577521	         -6.50011214	         42.43591665	          3.68274361	         11.91109835	         86.63025412	         71.79556659	         -5.85913813	         10.77604494	        -53.61838212	         -8.59472212	        -18.45889913	         40.73911572	         75.87070944	         -9.07646501	         20.81610166	
          0.45153333	        -21.15676881	          3.91866348	        -12.60955018	         -0.79649568	          0.85083921	          0.34375468	         19.40162799	         -2.60846864	         11.37706333	        -52.00383625	         16.92861211	        -13.79339894	         16.71542085	         63.64618021	         -1.88029941	        -13.62687301	       -113.32311342	         -3.10798521	        -15.61627921	          9.33301456	        -24.00269099	         -7.71944710	         -6.37515567	         44.39943996	          3.96312238	         12.37989947	         87.92808952	         71.52735480	         -5.99270982	         10.77335964	        -55.72511002	         -8.30724571	        -18.93555053	         41.71636617	         76.67604788	         -8.75072550	         21.07416903	
          0.45153333	        -21.15676881	          3.91866348	        -12.60955018	         -0.79649568	          0.85083921	          0.34375468	         19.40162799	         -2.60846864	         11.37706333	        -52.00383625	         16.92861211	        -13.79339894	         16.71542085	         63.64618021	         -1.88029941	        -13.62687301	       -113.32311342	         -3.10798521	        -15.61627921	          9.33301456	        -24.00269099	         -7.71944710	         -6.37515567	         44.39943996	          3.96312238	         12.37989947	         87.92808952	         71.52735480	         -5.99270982	         10.77335964	        -55.72511002	         -8.30724571	        -18.93555053	         41.71636617	         76.67604788	         -8.75072550	         21.07416903	
          0.45266004	        -21.13933015	          4.13216563	        -12.67704450	         -0.79130117	          0.85058084	          0.34391301	         18.91908758	         -2.98403042	         11.39483387	        -51.57572634	         16.76098707	        -13.58608413	         17.05341830	         64.43905456	         -1.72259638	        -13.54144546	       -113.47247622	         -2.91356958	        -15.74798761	          9.23285417	        -23.85377955	         -8.06167715	         -6.32058710	         45.25691193	          4.08556398	         12.58462524	         88.49485513	         71.41022653	         -6.05104067	         10.77218698	        -56.64511953	         -8.18170456	        -19.14370452	         42.14313211	         77.02773973	         -8.60847482	         21.18686723	
          0.45621996	        -21.08636077	          4.86978931	        -12.78872340	         -0.77437990	          0.84967868	          0.34418327	         17.30793550	         -4.31359049	         11.34142610	        -50.02058338	         16.09024286	        -12.79783235	         18.11603066	         66.84070961	         -1.18917517	        -13.33834725	       -113.66420551	         -2.31709447	        -16.17826190	          8.93519639	        -23.34960252	         -9.17336211	         -6.12538601	         47.92778695	          4.01027289	         13.56231651	         90.47431551	         70.47504379	         -6.38347460	         10.73572963	        -59.49341719	         -7.73090987	        -20.19047253	         43.61986709	         77.47388886	         -8.05010941	         21.50331616	
          0.45880000	        -21.04806801	          5.40723570	        -12.86505827	         -0.76209323	          0.84902096	          0.34436872	         16.13633978	         -5.28366090	         11.29775359	        -48.88432378	         15.59772838	        -12.22051274	         18.88591232	         68.57660554	         -0.80098802	        -13.19418133	       -113.79046065	         -1.88560893	        -16.49074138	          8.72032291	        -22.98267639	         -9.98042693	         -5.98288224	         49.86175009	          3.93475917	         14.28588837	         91.91747252	         69.77166194	         -6.63111836	         10.70782289	        -61.55505227	         -7.40174506	        -20.96674731	         44.69593959	         77.76709012	         -7.64050061	         21.73086464	
          0.45880000	        -21.04806801	          5.40723570	        -12.86505827	         -0.76209323	          0.84902096	          0.34436872	         16.13633978	         -5.28366090	         11.29775359	        -48.88432378	         15.59772838	        -12.22051274	         18.88591232	         68.57660554	         -0.80098802	        -13.19418133	       -113.79046065	         -1.88560893	        -16.49074138	          8.72032291	        -22.98267639	         -9.98042693	         -5.98288224	         49.86175009	          3.93475917	         14.28588837	         91.91747252	         69.77166194	         -6.63111836	         10.70782289	        -61.55505227	         -7.40174506	        -20.96674731	         44.69593959	         77.76709012	         -7.64050061	         21.73086464	
          0.45992670	        -21.03187044	          5.64478798	        -12.89437376	         -0.75670316	          0.84873296	          0.34444173	         15.62083993	         -5.71204152	         11.27370404	        -48.37907467	         15.37034644	        -11.96462194	         19.22529448	         69.32823497	         -0.63188671	        -13.13559068	       -113.83271092	         -1.69771359	        -16.62354546	          8.62977081	        -22.82131687	        -10.33426963	         -5.92064120	         50.70387701	          3.88342300	         14.61433120	         92.55410379	         69.44619786	         -6.74569549	         10.69408051	        -62.44911939	         -7.25585441	        -21.32056193	         45.16531290	         77.86738985	         -7.45815525	         21.82915964	
          0.46348663	        -20.99081706	          6.45030907	        -12.90946087	         -0.73920071	          0.84780804	          0.34451850	         13.91755754	         -7.15717168	         11.10170687	        -46.60825765	         14.41465945	        -11.08330028	         20.35882976	         71.57891037	         -0.10570224	        -13.03469310	       -113.71766995	         -1.11435435	        -16.97263652	          8.40699124	        -22.28983342	        -11.47921231	         -5.72380094	         53.31766665	          3.36710753	         15.89237606	         94.68911172	         68.06495636	         -7.23175228	         10.62065776	        -65.15345004	         -6.75354324	        -22.72422143	         46.63776562	         77.64921831	         -6.81510983	         22.11898609	
